<svg width="48" height="46" viewBox="0 0 48 46" fill="none" xmlns="http://www.w3.org/2000/svg">
<mask id="path-1-inside-1_342_18" fill="white">
<path fill-rule="evenodd" clip-rule="evenodd" d="M18.3871 17.2746L24 0V34.5491L9.30535 45.2254L14.9182 27.9508L0.223572 17.2746H18.3871ZM34.5655 42.2254L24 34.5491V30.8409L25.7634 32.1221L32.9883 37.3713L30.2286 28.8779L29.5551 26.805L31.3184 25.5238L38.5434 20.2746H29.6129H27.4332L26.7597 18.2016L24 9.70821V0L25.5772 4.8541L29.6129 17.2746H42.6725H47.7764L43.6473 20.2746L33.0818 27.9508L37.1174 40.3713L38.6946 45.2254L34.5655 42.2254Z"/>
</mask>
<path fill-rule="evenodd" clip-rule="evenodd" d="M18.3871 17.2746L24 0V34.5491L9.30535 45.2254L14.9182 27.9508L0.223572 17.2746H18.3871ZM34.5655 42.2254L24 34.5491V30.8409L25.7634 32.1221L32.9883 37.3713L30.2286 28.8779L29.5551 26.805L31.3184 25.5238L38.5434 20.2746H29.6129H27.4332L26.7597 18.2016L24 9.70821V0L25.5772 4.8541L29.6129 17.2746H42.6725H47.7764L43.6473 20.2746L33.0818 27.9508L37.1174 40.3713L38.6946 45.2254L34.5655 42.2254Z" fill="#FFC600"/>
<path d="M24 0H27L21.1468 -0.927051L24 0ZM18.3871 17.2746V20.2746H20.5668L21.2403 18.2016L18.3871 17.2746ZM24 34.5491L25.7633 36.9762L27 36.0777V34.5491H24ZM9.30535 45.2254L6.45218 44.2984L3.59901 53.0795L11.0687 47.6525L9.30535 45.2254ZM14.9182 27.9508L17.7714 28.8779L18.4449 26.805L16.6816 25.5238L14.9182 27.9508ZM0.223572 17.2746V14.2746H-9.00948L-1.53978 19.7016L0.223572 17.2746ZM24 34.5491H21V36.0777L22.2366 36.9762L24 34.5491ZM34.5655 42.2254L32.8021 44.6525L32.8021 44.6525L34.5655 42.2254ZM24 30.8409L25.7634 28.4139L21 24.9531V30.8409H24ZM25.7634 32.1221L27.5267 29.695L27.5267 29.695L25.7634 32.1221ZM32.9883 37.3713L31.2249 39.7984L38.6946 45.2254L35.8415 36.4443L32.9883 37.3713ZM30.2286 28.8779L33.0818 27.9509L33.0818 27.9508L30.2286 28.8779ZM29.5551 26.805L27.7917 24.3779L26.0284 25.6591L26.7019 27.732L29.5551 26.805ZM31.3184 25.5238L29.5551 23.0967L29.5551 23.0967L31.3184 25.5238ZM38.5434 20.2746L40.3067 22.7016L47.7764 17.2746H38.5434V20.2746ZM27.4332 20.2746L24.5801 21.2016L25.2536 23.2746H27.4332V20.2746ZM26.7597 18.2016L23.9065 19.1287L23.9065 19.1287L26.7597 18.2016ZM24 9.70821H21V10.1834L21.1468 10.6353L24 9.70821ZM24 0L26.8532 -0.927051L21 0H24ZM25.5772 4.8541L28.4304 3.92705L28.4304 3.92705L25.5772 4.8541ZM29.6129 17.2746L26.7597 18.2016L27.4332 20.2746H29.6129V17.2746ZM47.7764 17.2746L49.5398 19.7016L57.0095 14.2746H47.7764V17.2746ZM43.6473 20.2746L41.8839 17.8475L41.8839 17.8475L43.6473 20.2746ZM33.0818 27.9508L31.3184 25.5238L29.5551 26.805L30.2286 28.8779L33.0818 27.9508ZM37.1174 40.3713L34.2643 41.2984L34.2643 41.2984L37.1174 40.3713ZM38.6946 45.2254L36.9313 47.6525L44.401 53.0795L41.5478 44.2984L38.6946 45.2254ZM21.1468 -0.927051L15.534 16.3475L21.2403 18.2016L26.8532 0.927051L21.1468 -0.927051ZM27 34.5491V0H21V34.5491H27ZM11.0687 47.6525L25.7633 36.9762L22.2366 32.1221L7.542 42.7984L11.0687 47.6525ZM12.065 27.0238L6.45218 44.2984L12.1585 46.1525L17.7714 28.8779L12.065 27.0238ZM-1.53978 19.7016L13.1548 30.3779L16.6816 25.5238L1.98693 14.8475L-1.53978 19.7016ZM18.3871 14.2746H0.223572V20.2746H18.3871V14.2746ZM22.2366 36.9762L32.8021 44.6525L36.3288 39.7984L25.7634 32.1221L22.2366 36.9762ZM21 30.8409V34.5491H27V30.8409H21ZM27.5267 29.695L25.7634 28.4139L22.2366 33.268L24 34.5491L27.5267 29.695ZM34.7516 34.9443L27.5267 29.695L24 34.5491L31.2249 39.7984L34.7516 34.9443ZM27.3754 29.805L30.1351 38.2984L35.8415 36.4443L33.0818 27.9509L27.3754 29.805ZM26.7019 27.732L27.3754 29.805L33.0818 27.9508L32.4082 25.8779L26.7019 27.732ZM29.5551 23.0967L27.7917 24.3779L31.3184 29.232L33.0818 27.9508L29.5551 23.0967ZM36.78 17.8475L29.5551 23.0967L33.0818 27.9508L40.3067 22.7016L36.78 17.8475ZM29.6129 23.2746H38.5434V17.2746H29.6129V23.2746ZM27.4332 23.2746H29.6129V17.2746H27.4332V23.2746ZM23.9065 19.1287L24.5801 21.2016L30.2864 19.3475L29.6128 17.2746L23.9065 19.1287ZM21.1468 10.6353L23.9065 19.1287L29.6128 17.2746L26.8532 8.78115L21.1468 10.6353ZM21 0V9.70821H27V0H21ZM28.4304 3.92705L26.8532 -0.927051L21.1468 0.927051L22.724 5.78115L28.4304 3.92705ZM32.466 16.3475L28.4304 3.92705L22.724 5.78115L26.7597 18.2016L32.466 16.3475ZM42.6725 14.2746H29.6129V20.2746H42.6725V14.2746ZM47.7764 14.2746H42.6725V20.2746H47.7764V14.2746ZM45.4106 22.7016L49.5398 19.7016L46.0131 14.8475L41.8839 17.8475L45.4106 22.7016ZM34.8451 30.3779L45.4106 22.7016L41.8839 17.8475L31.3184 25.5238L34.8451 30.3779ZM39.9706 39.4443L35.935 27.0238L30.2286 28.8779L34.2643 41.2984L39.9706 39.4443ZM41.5478 44.2984L39.9706 39.4443L34.2643 41.2984L35.8415 46.1525L41.5478 44.2984ZM32.8021 44.6525L36.9313 47.6525L40.458 42.7984L36.3288 39.7984L32.8021 44.6525Z" fill="#FFC600" mask="url(#path-1-inside-1_342_18)"/>
</svg>
